M48
; DRILL file {KiCad (5.1.9)-1} date 04/24/21 16:12:19
; FORMAT={-:-/ absolute / inch / decimal}
; #@! TF.CreationDate,2021-04-24T16:12:19+02:00
; #@! TF.GenerationSoftware,Kicad,Pcbnew,(5.1.9)-1
; #@! TF.FileFunction,Plated,1,2,PTH
FMAT,2
INCH
T1C0.0157
T2C0.0320
T3C0.0400
%
G90
G05
T1
X3.32Y-2.1104
X3.41Y-2.39
X3.44Y-2.55
X3.46Y-1.74
X3.49Y-1.85
X3.53Y-2.16
X3.54Y-2.55
X3.61Y-1.6815
X3.69Y-1.88
X3.7Y-2.36
X3.7781Y-2.2419
X3.78Y-2.4
X3.85Y-2.4411
X3.89Y-2.3215
X3.9Y-2.18
X3.9Y-2.3785
X3.9498Y-2.5015
X3.95Y-2.2463
X3.99Y-2.17
T2
X3.3Y-1.8024
X3.3Y-2.0024
X3.6Y-1.8024
X3.6Y-2.0024
X3.7Y-1.8
X3.7Y-2.0
X4.0Y-1.8
X4.0Y-2.0
T3
X3.4Y-1.62
X3.5Y-1.62
X3.6Y-1.62
X3.7Y-1.62
X3.8Y-1.62
X3.9Y-1.62
T0
M30
