%TF.GenerationSoftware,KiCad,Pcbnew,(5.1.9)-1*%
%TF.CreationDate,2021-04-24T16:12:05+02:00*%
%TF.ProjectId,PwdToken,50776454-6f6b-4656-9e2e-6b696361645f,rev?*%
%TF.SameCoordinates,Original*%
%TF.FileFunction,Soldermask,Top*%
%TF.FilePolarity,Negative*%
%FSLAX46Y46*%
G04 Gerber Fmt 4.6, Leading zero omitted, Abs format (unit mm)*
G04 Created by KiCad (PCBNEW (5.1.9)-1) date 2021-04-24 16:12:05*
%MOMM*%
%LPD*%
G01*
G04 APERTURE LIST*
%ADD10C,1.397000*%
%ADD11R,1.400000X2.100000*%
%ADD12C,2.082800*%
%ADD13R,2.000000X7.500000*%
%ADD14R,1.900000X8.000000*%
G04 APERTURE END LIST*
D10*
%TO.C,SW1*%
X83820000Y-50860001D03*
X83820000Y-45780001D03*
X91440000Y-50860001D03*
X91440000Y-45780001D03*
%TD*%
D11*
%TO.C,D2*%
X88900000Y-62992000D03*
X84500000Y-62992000D03*
%TD*%
%TO.C,U1*%
G36*
G01*
X101450000Y-61030000D02*
X101750000Y-61030000D01*
G75*
G02*
X101900000Y-61180000I0J-150000D01*
G01*
X101900000Y-62830000D01*
G75*
G02*
X101750000Y-62980000I-150000J0D01*
G01*
X101450000Y-62980000D01*
G75*
G02*
X101300000Y-62830000I0J150000D01*
G01*
X101300000Y-61180000D01*
G75*
G02*
X101450000Y-61030000I150000J0D01*
G01*
G37*
G36*
G01*
X100180000Y-61030000D02*
X100480000Y-61030000D01*
G75*
G02*
X100630000Y-61180000I0J-150000D01*
G01*
X100630000Y-62830000D01*
G75*
G02*
X100480000Y-62980000I-150000J0D01*
G01*
X100180000Y-62980000D01*
G75*
G02*
X100030000Y-62830000I0J150000D01*
G01*
X100030000Y-61180000D01*
G75*
G02*
X100180000Y-61030000I150000J0D01*
G01*
G37*
G36*
G01*
X98910000Y-61030000D02*
X99210000Y-61030000D01*
G75*
G02*
X99360000Y-61180000I0J-150000D01*
G01*
X99360000Y-62830000D01*
G75*
G02*
X99210000Y-62980000I-150000J0D01*
G01*
X98910000Y-62980000D01*
G75*
G02*
X98760000Y-62830000I0J150000D01*
G01*
X98760000Y-61180000D01*
G75*
G02*
X98910000Y-61030000I150000J0D01*
G01*
G37*
G36*
G01*
X97640000Y-61030000D02*
X97940000Y-61030000D01*
G75*
G02*
X98090000Y-61180000I0J-150000D01*
G01*
X98090000Y-62830000D01*
G75*
G02*
X97940000Y-62980000I-150000J0D01*
G01*
X97640000Y-62980000D01*
G75*
G02*
X97490000Y-62830000I0J150000D01*
G01*
X97490000Y-61180000D01*
G75*
G02*
X97640000Y-61030000I150000J0D01*
G01*
G37*
G36*
G01*
X97640000Y-56080000D02*
X97940000Y-56080000D01*
G75*
G02*
X98090000Y-56230000I0J-150000D01*
G01*
X98090000Y-57880000D01*
G75*
G02*
X97940000Y-58030000I-150000J0D01*
G01*
X97640000Y-58030000D01*
G75*
G02*
X97490000Y-57880000I0J150000D01*
G01*
X97490000Y-56230000D01*
G75*
G02*
X97640000Y-56080000I150000J0D01*
G01*
G37*
G36*
G01*
X98910000Y-56080000D02*
X99210000Y-56080000D01*
G75*
G02*
X99360000Y-56230000I0J-150000D01*
G01*
X99360000Y-57880000D01*
G75*
G02*
X99210000Y-58030000I-150000J0D01*
G01*
X98910000Y-58030000D01*
G75*
G02*
X98760000Y-57880000I0J150000D01*
G01*
X98760000Y-56230000D01*
G75*
G02*
X98910000Y-56080000I150000J0D01*
G01*
G37*
G36*
G01*
X100180000Y-56080000D02*
X100480000Y-56080000D01*
G75*
G02*
X100630000Y-56230000I0J-150000D01*
G01*
X100630000Y-57880000D01*
G75*
G02*
X100480000Y-58030000I-150000J0D01*
G01*
X100180000Y-58030000D01*
G75*
G02*
X100030000Y-57880000I0J150000D01*
G01*
X100030000Y-56230000D01*
G75*
G02*
X100180000Y-56080000I150000J0D01*
G01*
G37*
G36*
G01*
X101450000Y-56080000D02*
X101750000Y-56080000D01*
G75*
G02*
X101900000Y-56230000I0J-150000D01*
G01*
X101900000Y-57880000D01*
G75*
G02*
X101750000Y-58030000I-150000J0D01*
G01*
X101450000Y-58030000D01*
G75*
G02*
X101300000Y-57880000I0J150000D01*
G01*
X101300000Y-56230000D01*
G75*
G02*
X101450000Y-56080000I150000J0D01*
G01*
G37*
%TD*%
%TO.C,R3*%
G36*
G01*
X86198000Y-57969999D02*
X86198000Y-58870001D01*
G75*
G02*
X85948001Y-59120000I-249999J0D01*
G01*
X85247999Y-59120000D01*
G75*
G02*
X84998000Y-58870001I0J249999D01*
G01*
X84998000Y-57969999D01*
G75*
G02*
X85247999Y-57720000I249999J0D01*
G01*
X85948001Y-57720000D01*
G75*
G02*
X86198000Y-57969999I0J-249999D01*
G01*
G37*
G36*
G01*
X88198000Y-57969999D02*
X88198000Y-58870001D01*
G75*
G02*
X87948001Y-59120000I-249999J0D01*
G01*
X87247999Y-59120000D01*
G75*
G02*
X86998000Y-58870001I0J249999D01*
G01*
X86998000Y-57969999D01*
G75*
G02*
X87247999Y-57720000I249999J0D01*
G01*
X87948001Y-57720000D01*
G75*
G02*
X88198000Y-57969999I0J-249999D01*
G01*
G37*
%TD*%
%TO.C,R4*%
G36*
G01*
X94358000Y-57969999D02*
X94358000Y-58870001D01*
G75*
G02*
X94108001Y-59120000I-249999J0D01*
G01*
X93407999Y-59120000D01*
G75*
G02*
X93158000Y-58870001I0J249999D01*
G01*
X93158000Y-57969999D01*
G75*
G02*
X93407999Y-57720000I249999J0D01*
G01*
X94108001Y-57720000D01*
G75*
G02*
X94358000Y-57969999I0J-249999D01*
G01*
G37*
G36*
G01*
X96358000Y-57969999D02*
X96358000Y-58870001D01*
G75*
G02*
X96108001Y-59120000I-249999J0D01*
G01*
X95407999Y-59120000D01*
G75*
G02*
X95158000Y-58870001I0J249999D01*
G01*
X95158000Y-57969999D01*
G75*
G02*
X95407999Y-57720000I249999J0D01*
G01*
X96108001Y-57720000D01*
G75*
G02*
X96358000Y-57969999I0J-249999D01*
G01*
G37*
%TD*%
%TO.C,R2*%
G36*
G01*
X90262000Y-57969999D02*
X90262000Y-58870001D01*
G75*
G02*
X90012001Y-59120000I-249999J0D01*
G01*
X89311999Y-59120000D01*
G75*
G02*
X89062000Y-58870001I0J249999D01*
G01*
X89062000Y-57969999D01*
G75*
G02*
X89311999Y-57720000I249999J0D01*
G01*
X90012001Y-57720000D01*
G75*
G02*
X90262000Y-57969999I0J-249999D01*
G01*
G37*
G36*
G01*
X92262000Y-57969999D02*
X92262000Y-58870001D01*
G75*
G02*
X92012001Y-59120000I-249999J0D01*
G01*
X91311999Y-59120000D01*
G75*
G02*
X91062000Y-58870001I0J249999D01*
G01*
X91062000Y-57969999D01*
G75*
G02*
X91311999Y-57720000I249999J0D01*
G01*
X92012001Y-57720000D01*
G75*
G02*
X92262000Y-57969999I0J-249999D01*
G01*
G37*
%TD*%
%TO.C,R1*%
G36*
G01*
X93707500Y-56330001D02*
X93707500Y-55429999D01*
G75*
G02*
X93957499Y-55180000I249999J0D01*
G01*
X94657501Y-55180000D01*
G75*
G02*
X94907500Y-55429999I0J-249999D01*
G01*
X94907500Y-56330001D01*
G75*
G02*
X94657501Y-56580000I-249999J0D01*
G01*
X93957499Y-56580000D01*
G75*
G02*
X93707500Y-56330001I0J249999D01*
G01*
G37*
G36*
G01*
X91707500Y-56330001D02*
X91707500Y-55429999D01*
G75*
G02*
X91957499Y-55180000I249999J0D01*
G01*
X92657501Y-55180000D01*
G75*
G02*
X92907500Y-55429999I0J-249999D01*
G01*
X92907500Y-56330001D01*
G75*
G02*
X92657501Y-56580000I-249999J0D01*
G01*
X91957499Y-56580000D01*
G75*
G02*
X91707500Y-56330001I0J249999D01*
G01*
G37*
%TD*%
%TO.C,D3*%
X91104000Y-62992000D03*
X95504000Y-62992000D03*
%TD*%
%TO.C,D1*%
G36*
G01*
X85464500Y-56330001D02*
X85464500Y-55429999D01*
G75*
G02*
X85714499Y-55180000I249999J0D01*
G01*
X86364501Y-55180000D01*
G75*
G02*
X86614500Y-55429999I0J-249999D01*
G01*
X86614500Y-56330001D01*
G75*
G02*
X86364501Y-56580000I-249999J0D01*
G01*
X85714499Y-56580000D01*
G75*
G02*
X85464500Y-56330001I0J249999D01*
G01*
G37*
G36*
G01*
X83414500Y-56330001D02*
X83414500Y-55429999D01*
G75*
G02*
X83664499Y-55180000I249999J0D01*
G01*
X84314501Y-55180000D01*
G75*
G02*
X84564500Y-55429999I0J-249999D01*
G01*
X84564500Y-56330001D01*
G75*
G02*
X84314501Y-56580000I-249999J0D01*
G01*
X83664499Y-56580000D01*
G75*
G02*
X83414500Y-56330001I0J249999D01*
G01*
G37*
%TD*%
D12*
%TO.C,J2*%
X99060000Y-41148000D03*
X96520000Y-41148000D03*
X93980000Y-41148000D03*
X91440000Y-41148000D03*
X88900000Y-41148000D03*
X86360000Y-41148000D03*
%TD*%
D10*
%TO.C,SW2*%
X93980000Y-50800000D03*
X93980000Y-45720000D03*
X101600000Y-50800000D03*
X101600000Y-45720000D03*
%TD*%
D13*
%TO.C,J1*%
X94010000Y-72320000D03*
X91410000Y-72320000D03*
D14*
X88900000Y-72570000D03*
X96520000Y-72570000D03*
%TD*%
M02*
