%TF.GenerationSoftware,KiCad,Pcbnew,(5.1.9)-1*%
%TF.CreationDate,2021-04-24T16:12:05+02:00*%
%TF.ProjectId,PwdToken,50776454-6f6b-4656-9e2e-6b696361645f,rev?*%
%TF.SameCoordinates,Original*%
%TF.FileFunction,Copper,L2,Bot*%
%TF.FilePolarity,Positive*%
%FSLAX46Y46*%
G04 Gerber Fmt 4.6, Leading zero omitted, Abs format (unit mm)*
G04 Created by KiCad (PCBNEW (5.1.9)-1) date 2021-04-24 16:12:05*
%MOMM*%
%LPD*%
G01*
G04 APERTURE LIST*
%TA.AperFunction,ComponentPad*%
%ADD10C,1.397000*%
%TD*%
%TA.AperFunction,ComponentPad*%
%ADD11C,1.879600*%
%TD*%
%TA.AperFunction,ViaPad*%
%ADD12C,0.800000*%
%TD*%
%TA.AperFunction,Conductor*%
%ADD13C,0.250000*%
%TD*%
%TA.AperFunction,Conductor*%
%ADD14C,0.254000*%
%TD*%
%TA.AperFunction,Conductor*%
%ADD15C,0.100000*%
%TD*%
G04 APERTURE END LIST*
D10*
%TO.P,SW1,2*%
%TO.N,GND*%
X83820000Y-50860001D03*
%TO.P,SW1,1*%
%TO.N,Net-(J2-Pad4)*%
X83820000Y-45780001D03*
%TO.P,SW1,2*%
%TO.N,GND*%
X91440000Y-50860001D03*
%TO.P,SW1,1*%
%TO.N,Net-(J2-Pad4)*%
X91440000Y-45780001D03*
%TD*%
D11*
%TO.P,J2,6*%
%TO.N,GND*%
X99060000Y-41148000D03*
%TO.P,J2,5*%
%TO.N,VCC*%
X96520000Y-41148000D03*
%TO.P,J2,4*%
%TO.N,Net-(J2-Pad4)*%
X93980000Y-41148000D03*
%TO.P,J2,3*%
%TO.N,Net-(J2-Pad3)*%
X91440000Y-41148000D03*
%TO.P,J2,2*%
%TO.N,Net-(J2-Pad2)*%
X88900000Y-41148000D03*
%TO.P,J2,1*%
%TO.N,Net-(J2-Pad1)*%
X86360000Y-41148000D03*
%TD*%
D10*
%TO.P,SW2,2*%
%TO.N,GND*%
X93980000Y-50800000D03*
%TO.P,SW2,1*%
%TO.N,Net-(J2-Pad2)*%
X93980000Y-45720000D03*
%TO.P,SW2,2*%
%TO.N,GND*%
X101600000Y-50800000D03*
%TO.P,SW2,1*%
%TO.N,Net-(J2-Pad2)*%
X101600000Y-45720000D03*
%TD*%
D12*
%TO.N,GND*%
X84328000Y-53604010D03*
X86614000Y-60706000D03*
X88646000Y-46990000D03*
X87884000Y-44196000D03*
%TO.N,Net-(D2-Pad1)*%
X89916000Y-64770000D03*
X87376000Y-64770000D03*
%TO.N,VCC*%
X93980000Y-59944000D03*
%TO.N,Net-(R2-Pad1)*%
X96012000Y-60960000D03*
X100330000Y-57055000D03*
%TO.N,Net-(R3-Pad1)*%
X95963020Y-56944980D03*
X99060000Y-55372000D03*
%TO.N,Net-(J2-Pad4)*%
X91694000Y-42709000D03*
X89662000Y-54864000D03*
X100325347Y-63537000D03*
%TO.N,Net-(J2-Pad3)*%
X98806000Y-58965000D03*
X99060000Y-60415000D03*
%TO.N,Net-(J2-Pad2)*%
X101346000Y-55118000D03*
X97790000Y-62005000D03*
%TO.N,Net-(J2-Pad1)*%
X93726000Y-47752000D03*
%TD*%
D13*
%TO.N,Net-(D2-Pad1)*%
X89916000Y-64770000D02*
X88138000Y-64770000D01*
X88138000Y-64770000D02*
X87376000Y-64770000D01*
%TO.N,VCC*%
X93980000Y-54864000D02*
X93980000Y-59944000D01*
X95758000Y-53086000D02*
X93980000Y-54864000D01*
X95758000Y-43434000D02*
X95758000Y-53086000D01*
X96520000Y-42672000D02*
X95758000Y-43434000D01*
X96520000Y-41148000D02*
X96520000Y-42672000D01*
%TO.N,Net-(R2-Pad1)*%
X96012000Y-60960000D02*
X96012000Y-59944000D01*
X96012000Y-59944000D02*
X98806000Y-57150000D01*
X100235000Y-57150000D02*
X100330000Y-57055000D01*
X98806000Y-57150000D02*
X100235000Y-57150000D01*
%TO.N,Net-(R3-Pad1)*%
X95963020Y-56944980D02*
X97536000Y-55372000D01*
X97536000Y-55372000D02*
X98806000Y-55372000D01*
X98806000Y-55372000D02*
X99060000Y-55372000D01*
%TO.N,Net-(J2-Pad4)*%
X93980000Y-42477077D02*
X93785077Y-42672000D01*
X93980000Y-41148000D02*
X93980000Y-42477077D01*
X91731000Y-42672000D02*
X91694000Y-42709000D01*
X93785077Y-42672000D02*
X91731000Y-42672000D01*
X89662000Y-54864000D02*
X89662000Y-62230000D01*
X89662000Y-62230000D02*
X91186000Y-63754000D01*
X100108347Y-63754000D02*
X100325347Y-63537000D01*
X91186000Y-63754000D02*
X100108347Y-63754000D01*
%TO.N,Net-(J2-Pad3)*%
X98806000Y-58965000D02*
X98806000Y-59944000D01*
X99060000Y-60198000D02*
X99060000Y-60415000D01*
X98806000Y-59944000D02*
X99060000Y-60198000D01*
%TO.N,Net-(J2-Pad2)*%
X93980000Y-45720000D02*
X93980000Y-44196000D01*
X93980000Y-44196000D02*
X93218000Y-43434000D01*
X93218000Y-43434000D02*
X89408000Y-43434000D01*
X88900000Y-42926000D02*
X88900000Y-41148000D01*
X89408000Y-43434000D02*
X88900000Y-42926000D01*
X101346000Y-55118000D02*
X101346000Y-61722000D01*
X101346000Y-61722000D02*
X101092000Y-61976000D01*
X97819000Y-61976000D02*
X97790000Y-62005000D01*
X101092000Y-61976000D02*
X97819000Y-61976000D01*
%TO.N,Net-(J2-Pad1)*%
X86360000Y-47244000D02*
X86360000Y-41148000D01*
X86868000Y-47752000D02*
X86360000Y-47244000D01*
X93726000Y-47752000D02*
X86868000Y-47752000D01*
%TD*%
D14*
%TO.N,GND*%
X85356123Y-39924773D02*
X85136773Y-40144123D01*
X84964430Y-40402052D01*
X84845718Y-40688648D01*
X84785200Y-40992896D01*
X84785200Y-41303104D01*
X84845718Y-41607352D01*
X84964430Y-41893948D01*
X85136773Y-42151877D01*
X85356123Y-42371227D01*
X85600001Y-42534181D01*
X85600000Y-47206677D01*
X85596324Y-47244000D01*
X85600000Y-47281322D01*
X85600000Y-47281332D01*
X85610997Y-47392985D01*
X85631251Y-47459753D01*
X85654454Y-47536246D01*
X85725026Y-47668276D01*
X85764871Y-47716826D01*
X85819999Y-47784001D01*
X85849002Y-47807803D01*
X86304200Y-48263002D01*
X86327999Y-48292001D01*
X86443724Y-48386974D01*
X86575753Y-48457546D01*
X86719014Y-48501003D01*
X86830667Y-48512000D01*
X86830676Y-48512000D01*
X86867999Y-48515676D01*
X86905322Y-48512000D01*
X93022289Y-48512000D01*
X93066226Y-48555937D01*
X93235744Y-48669205D01*
X93424102Y-48747226D01*
X93624061Y-48787000D01*
X93827939Y-48787000D01*
X94027898Y-48747226D01*
X94216256Y-48669205D01*
X94385774Y-48555937D01*
X94529937Y-48411774D01*
X94643205Y-48242256D01*
X94721226Y-48053898D01*
X94761000Y-47853939D01*
X94761000Y-47650061D01*
X94721226Y-47450102D01*
X94643205Y-47261744D01*
X94529937Y-47092226D01*
X94419170Y-46981459D01*
X94611649Y-46901732D01*
X94830057Y-46755797D01*
X94998000Y-46587854D01*
X94998001Y-50084225D01*
X94900197Y-50059408D01*
X94159605Y-50800000D01*
X94900197Y-51540592D01*
X94998001Y-51515775D01*
X94998001Y-52771197D01*
X93469003Y-54300196D01*
X93439999Y-54323999D01*
X93399175Y-54373744D01*
X93345026Y-54439724D01*
X93279613Y-54562102D01*
X93274454Y-54571754D01*
X93230997Y-54715015D01*
X93220000Y-54826668D01*
X93220000Y-54826678D01*
X93216324Y-54864000D01*
X93220000Y-54901323D01*
X93220001Y-59240288D01*
X93176063Y-59284226D01*
X93062795Y-59453744D01*
X92984774Y-59642102D01*
X92945000Y-59842061D01*
X92945000Y-60045939D01*
X92984774Y-60245898D01*
X93062795Y-60434256D01*
X93176063Y-60603774D01*
X93320226Y-60747937D01*
X93489744Y-60861205D01*
X93678102Y-60939226D01*
X93878061Y-60979000D01*
X94081939Y-60979000D01*
X94281898Y-60939226D01*
X94470256Y-60861205D01*
X94639774Y-60747937D01*
X94783937Y-60603774D01*
X94897205Y-60434256D01*
X94975226Y-60245898D01*
X95015000Y-60045939D01*
X95015000Y-59842061D01*
X94975226Y-59642102D01*
X94897205Y-59453744D01*
X94783937Y-59284226D01*
X94740000Y-59240289D01*
X94740000Y-55178801D01*
X96269003Y-53649799D01*
X96298001Y-53626001D01*
X96392974Y-53510276D01*
X96463546Y-53378247D01*
X96507003Y-53234986D01*
X96518000Y-53123333D01*
X96518000Y-53123325D01*
X96521676Y-53086000D01*
X96518000Y-53048675D01*
X96518000Y-51720197D01*
X100859408Y-51720197D01*
X100918686Y-51953812D01*
X101156875Y-52064559D01*
X101412093Y-52126711D01*
X101674533Y-52137876D01*
X101934107Y-52097629D01*
X102180842Y-52007514D01*
X102281314Y-51953812D01*
X102340592Y-51720197D01*
X101600000Y-50979605D01*
X100859408Y-51720197D01*
X96518000Y-51720197D01*
X96518000Y-50874533D01*
X100262124Y-50874533D01*
X100302371Y-51134107D01*
X100392486Y-51380842D01*
X100446188Y-51481314D01*
X100679803Y-51540592D01*
X101420395Y-50800000D01*
X100679803Y-50059408D01*
X100446188Y-50118686D01*
X100335441Y-50356875D01*
X100273289Y-50612093D01*
X100262124Y-50874533D01*
X96518000Y-50874533D01*
X96518000Y-49879803D01*
X100859408Y-49879803D01*
X101600000Y-50620395D01*
X102340592Y-49879803D01*
X102281314Y-49646188D01*
X102043125Y-49535441D01*
X101787907Y-49473289D01*
X101525467Y-49462124D01*
X101265893Y-49502371D01*
X101019158Y-49592486D01*
X100918686Y-49646188D01*
X100859408Y-49879803D01*
X96518000Y-49879803D01*
X96518000Y-43748801D01*
X97031002Y-43235799D01*
X97060001Y-43212001D01*
X97154974Y-43096276D01*
X97225546Y-42964247D01*
X97269003Y-42820986D01*
X97280000Y-42709333D01*
X97280000Y-42709325D01*
X97283676Y-42672000D01*
X97280000Y-42634675D01*
X97280000Y-42534181D01*
X97523877Y-42371227D01*
X97654628Y-42240476D01*
X98147129Y-42240476D01*
X98235623Y-42498723D01*
X98514976Y-42633597D01*
X98815275Y-42711381D01*
X99124977Y-42729084D01*
X99432184Y-42686027D01*
X99725086Y-42583865D01*
X99884377Y-42498723D01*
X99972871Y-42240476D01*
X99060000Y-41327605D01*
X98147129Y-42240476D01*
X97654628Y-42240476D01*
X97743227Y-42151877D01*
X97834495Y-42015286D01*
X97967524Y-42060871D01*
X98880395Y-41148000D01*
X99239605Y-41148000D01*
X100152476Y-42060871D01*
X100410723Y-41972377D01*
X100545597Y-41693024D01*
X100623381Y-41392725D01*
X100641084Y-41083023D01*
X100598027Y-40775816D01*
X100495865Y-40482914D01*
X100410723Y-40323623D01*
X100152476Y-40235129D01*
X99239605Y-41148000D01*
X98880395Y-41148000D01*
X97967524Y-40235129D01*
X97834495Y-40280714D01*
X97743227Y-40144123D01*
X97523877Y-39924773D01*
X97376053Y-39826000D01*
X98225780Y-39826000D01*
X98147129Y-40055524D01*
X99060000Y-40968395D01*
X99972871Y-40055524D01*
X99894220Y-39826000D01*
X102743000Y-39826000D01*
X102743000Y-45030384D01*
X102635797Y-44869943D01*
X102450057Y-44684203D01*
X102231649Y-44538268D01*
X101988968Y-44437746D01*
X101731338Y-44386500D01*
X101468662Y-44386500D01*
X101211032Y-44437746D01*
X100968351Y-44538268D01*
X100749943Y-44684203D01*
X100564203Y-44869943D01*
X100418268Y-45088351D01*
X100317746Y-45331032D01*
X100266500Y-45588662D01*
X100266500Y-45851338D01*
X100317746Y-46108968D01*
X100418268Y-46351649D01*
X100564203Y-46570057D01*
X100749943Y-46755797D01*
X100968351Y-46901732D01*
X101211032Y-47002254D01*
X101468662Y-47053500D01*
X101731338Y-47053500D01*
X101988968Y-47002254D01*
X102231649Y-46901732D01*
X102450057Y-46755797D01*
X102635797Y-46570057D01*
X102743000Y-46409616D01*
X102743000Y-50115943D01*
X102520197Y-50059408D01*
X101779605Y-50800000D01*
X102520197Y-51540592D01*
X102743000Y-51484057D01*
X102743000Y-65151000D01*
X90878461Y-65151000D01*
X90911226Y-65071898D01*
X90951000Y-64871939D01*
X90951000Y-64668061D01*
X90911226Y-64468102D01*
X90909684Y-64464378D01*
X91037014Y-64503003D01*
X91148667Y-64514000D01*
X91148676Y-64514000D01*
X91185999Y-64517676D01*
X91223322Y-64514000D01*
X99979448Y-64514000D01*
X100023449Y-64532226D01*
X100223408Y-64572000D01*
X100427286Y-64572000D01*
X100627245Y-64532226D01*
X100815603Y-64454205D01*
X100985121Y-64340937D01*
X101129284Y-64196774D01*
X101242552Y-64027256D01*
X101320573Y-63838898D01*
X101360347Y-63638939D01*
X101360347Y-63435061D01*
X101320573Y-63235102D01*
X101242552Y-63046744D01*
X101129284Y-62877226D01*
X100988058Y-62736000D01*
X101054678Y-62736000D01*
X101092000Y-62739676D01*
X101129322Y-62736000D01*
X101129333Y-62736000D01*
X101240986Y-62725003D01*
X101384247Y-62681546D01*
X101516276Y-62610974D01*
X101632001Y-62516001D01*
X101655804Y-62486997D01*
X101856997Y-62285804D01*
X101886001Y-62262001D01*
X101980974Y-62146276D01*
X102051546Y-62014247D01*
X102095003Y-61870986D01*
X102106000Y-61759333D01*
X102106000Y-61759324D01*
X102109676Y-61722001D01*
X102106000Y-61684678D01*
X102106000Y-55821711D01*
X102149937Y-55777774D01*
X102263205Y-55608256D01*
X102341226Y-55419898D01*
X102381000Y-55219939D01*
X102381000Y-55016061D01*
X102341226Y-54816102D01*
X102263205Y-54627744D01*
X102149937Y-54458226D01*
X102005774Y-54314063D01*
X101836256Y-54200795D01*
X101647898Y-54122774D01*
X101447939Y-54083000D01*
X101244061Y-54083000D01*
X101044102Y-54122774D01*
X100855744Y-54200795D01*
X100686226Y-54314063D01*
X100542063Y-54458226D01*
X100428795Y-54627744D01*
X100350774Y-54816102D01*
X100311000Y-55016061D01*
X100311000Y-55219939D01*
X100350774Y-55419898D01*
X100428795Y-55608256D01*
X100542063Y-55777774D01*
X100586000Y-55821711D01*
X100586000Y-56050644D01*
X100431939Y-56020000D01*
X100228061Y-56020000D01*
X100028102Y-56059774D01*
X99839744Y-56137795D01*
X99670226Y-56251063D01*
X99531289Y-56390000D01*
X99247404Y-56390000D01*
X99361898Y-56367226D01*
X99550256Y-56289205D01*
X99719774Y-56175937D01*
X99863937Y-56031774D01*
X99977205Y-55862256D01*
X100055226Y-55673898D01*
X100095000Y-55473939D01*
X100095000Y-55270061D01*
X100055226Y-55070102D01*
X99977205Y-54881744D01*
X99863937Y-54712226D01*
X99719774Y-54568063D01*
X99550256Y-54454795D01*
X99361898Y-54376774D01*
X99161939Y-54337000D01*
X98958061Y-54337000D01*
X98758102Y-54376774D01*
X98569744Y-54454795D01*
X98400226Y-54568063D01*
X98356289Y-54612000D01*
X97573325Y-54612000D01*
X97536000Y-54608324D01*
X97498675Y-54612000D01*
X97498667Y-54612000D01*
X97387014Y-54622997D01*
X97243753Y-54666454D01*
X97111724Y-54737026D01*
X96995999Y-54831999D01*
X96972201Y-54860997D01*
X95923219Y-55909980D01*
X95861081Y-55909980D01*
X95661122Y-55949754D01*
X95472764Y-56027775D01*
X95303246Y-56141043D01*
X95159083Y-56285206D01*
X95045815Y-56454724D01*
X94967794Y-56643082D01*
X94928020Y-56843041D01*
X94928020Y-57046919D01*
X94967794Y-57246878D01*
X95045815Y-57435236D01*
X95159083Y-57604754D01*
X95303246Y-57748917D01*
X95472764Y-57862185D01*
X95661122Y-57940206D01*
X95861081Y-57979980D01*
X96064959Y-57979980D01*
X96264918Y-57940206D01*
X96453276Y-57862185D01*
X96622794Y-57748917D01*
X96766957Y-57604754D01*
X96880225Y-57435236D01*
X96958246Y-57246878D01*
X96998020Y-57046919D01*
X96998020Y-56984781D01*
X97850802Y-56132000D01*
X98356289Y-56132000D01*
X98400226Y-56175937D01*
X98569744Y-56289205D01*
X98758102Y-56367226D01*
X98872596Y-56390000D01*
X98843325Y-56390000D01*
X98806000Y-56386324D01*
X98768675Y-56390000D01*
X98768667Y-56390000D01*
X98657014Y-56400997D01*
X98513753Y-56444454D01*
X98381724Y-56515026D01*
X98265999Y-56609999D01*
X98242201Y-56638997D01*
X95500998Y-59380201D01*
X95472000Y-59403999D01*
X95448202Y-59432997D01*
X95448201Y-59432998D01*
X95377026Y-59519724D01*
X95306454Y-59651754D01*
X95262998Y-59795015D01*
X95248324Y-59944000D01*
X95252001Y-59981332D01*
X95252001Y-60256288D01*
X95208063Y-60300226D01*
X95094795Y-60469744D01*
X95016774Y-60658102D01*
X94977000Y-60858061D01*
X94977000Y-61061939D01*
X95016774Y-61261898D01*
X95094795Y-61450256D01*
X95208063Y-61619774D01*
X95352226Y-61763937D01*
X95521744Y-61877205D01*
X95710102Y-61955226D01*
X95910061Y-61995000D01*
X96113939Y-61995000D01*
X96313898Y-61955226D01*
X96502256Y-61877205D01*
X96671774Y-61763937D01*
X96815937Y-61619774D01*
X96851069Y-61567196D01*
X96794774Y-61703102D01*
X96755000Y-61903061D01*
X96755000Y-62106939D01*
X96794774Y-62306898D01*
X96872795Y-62495256D01*
X96986063Y-62664774D01*
X97130226Y-62808937D01*
X97299744Y-62922205D01*
X97473071Y-62994000D01*
X91500803Y-62994000D01*
X90422000Y-61915199D01*
X90422000Y-55567711D01*
X90465937Y-55523774D01*
X90579205Y-55354256D01*
X90657226Y-55165898D01*
X90697000Y-54965939D01*
X90697000Y-54762061D01*
X90657226Y-54562102D01*
X90579205Y-54373744D01*
X90465937Y-54204226D01*
X90321774Y-54060063D01*
X90152256Y-53946795D01*
X89963898Y-53868774D01*
X89763939Y-53829000D01*
X89560061Y-53829000D01*
X89360102Y-53868774D01*
X89171744Y-53946795D01*
X89002226Y-54060063D01*
X88858063Y-54204226D01*
X88744795Y-54373744D01*
X88666774Y-54562102D01*
X88627000Y-54762061D01*
X88627000Y-54965939D01*
X88666774Y-55165898D01*
X88744795Y-55354256D01*
X88858063Y-55523774D01*
X88902000Y-55567711D01*
X88902001Y-62192668D01*
X88898324Y-62230000D01*
X88912998Y-62378985D01*
X88956454Y-62522246D01*
X89027026Y-62654276D01*
X89085070Y-62725002D01*
X89122000Y-62770001D01*
X89150998Y-62793799D01*
X90110636Y-63753438D01*
X90017939Y-63735000D01*
X89814061Y-63735000D01*
X89614102Y-63774774D01*
X89425744Y-63852795D01*
X89256226Y-63966063D01*
X89212289Y-64010000D01*
X88079711Y-64010000D01*
X88035774Y-63966063D01*
X87866256Y-63852795D01*
X87677898Y-63774774D01*
X87477939Y-63735000D01*
X87274061Y-63735000D01*
X87074102Y-63774774D01*
X86885744Y-63852795D01*
X86716226Y-63966063D01*
X86572063Y-64110226D01*
X86458795Y-64279744D01*
X86380774Y-64468102D01*
X86341000Y-64668061D01*
X86341000Y-64871939D01*
X86380774Y-65071898D01*
X86413539Y-65151000D01*
X82677000Y-65151000D01*
X82677000Y-51780198D01*
X83079408Y-51780198D01*
X83138686Y-52013813D01*
X83376875Y-52124560D01*
X83632093Y-52186712D01*
X83894533Y-52197877D01*
X84154107Y-52157630D01*
X84400842Y-52067515D01*
X84501314Y-52013813D01*
X84560592Y-51780198D01*
X90699408Y-51780198D01*
X90758686Y-52013813D01*
X90996875Y-52124560D01*
X91252093Y-52186712D01*
X91514533Y-52197877D01*
X91774107Y-52157630D01*
X92020842Y-52067515D01*
X92121314Y-52013813D01*
X92180592Y-51780198D01*
X92120591Y-51720197D01*
X93239408Y-51720197D01*
X93298686Y-51953812D01*
X93536875Y-52064559D01*
X93792093Y-52126711D01*
X94054533Y-52137876D01*
X94314107Y-52097629D01*
X94560842Y-52007514D01*
X94661314Y-51953812D01*
X94720592Y-51720197D01*
X93980000Y-50979605D01*
X93239408Y-51720197D01*
X92120591Y-51720197D01*
X91440000Y-51039606D01*
X90699408Y-51780198D01*
X84560592Y-51780198D01*
X83820000Y-51039606D01*
X83079408Y-51780198D01*
X82677000Y-51780198D01*
X82677000Y-51544058D01*
X82899803Y-51600593D01*
X83640395Y-50860001D01*
X83999605Y-50860001D01*
X84740197Y-51600593D01*
X84973812Y-51541315D01*
X85084559Y-51303126D01*
X85146711Y-51047908D01*
X85151534Y-50934534D01*
X90102124Y-50934534D01*
X90142371Y-51194108D01*
X90232486Y-51440843D01*
X90286188Y-51541315D01*
X90519803Y-51600593D01*
X91260395Y-50860001D01*
X91619605Y-50860001D01*
X92360197Y-51600593D01*
X92593812Y-51541315D01*
X92704559Y-51303126D01*
X92720378Y-51238169D01*
X92772486Y-51380842D01*
X92826188Y-51481314D01*
X93059803Y-51540592D01*
X93800395Y-50800000D01*
X93059803Y-50059408D01*
X92826188Y-50118686D01*
X92715441Y-50356875D01*
X92699622Y-50421832D01*
X92647514Y-50279159D01*
X92593812Y-50178687D01*
X92360197Y-50119409D01*
X91619605Y-50860001D01*
X91260395Y-50860001D01*
X90519803Y-50119409D01*
X90286188Y-50178687D01*
X90175441Y-50416876D01*
X90113289Y-50672094D01*
X90102124Y-50934534D01*
X85151534Y-50934534D01*
X85157876Y-50785468D01*
X85117629Y-50525894D01*
X85027514Y-50279159D01*
X84973812Y-50178687D01*
X84740197Y-50119409D01*
X83999605Y-50860001D01*
X83640395Y-50860001D01*
X82899803Y-50119409D01*
X82677000Y-50175944D01*
X82677000Y-49939804D01*
X83079408Y-49939804D01*
X83820000Y-50680396D01*
X84560592Y-49939804D01*
X90699408Y-49939804D01*
X91440000Y-50680396D01*
X92180592Y-49939804D01*
X92165368Y-49879803D01*
X93239408Y-49879803D01*
X93980000Y-50620395D01*
X94720592Y-49879803D01*
X94661314Y-49646188D01*
X94423125Y-49535441D01*
X94167907Y-49473289D01*
X93905467Y-49462124D01*
X93645893Y-49502371D01*
X93399158Y-49592486D01*
X93298686Y-49646188D01*
X93239408Y-49879803D01*
X92165368Y-49879803D01*
X92121314Y-49706189D01*
X91883125Y-49595442D01*
X91627907Y-49533290D01*
X91365467Y-49522125D01*
X91105893Y-49562372D01*
X90859158Y-49652487D01*
X90758686Y-49706189D01*
X90699408Y-49939804D01*
X84560592Y-49939804D01*
X84501314Y-49706189D01*
X84263125Y-49595442D01*
X84007907Y-49533290D01*
X83745467Y-49522125D01*
X83485893Y-49562372D01*
X83239158Y-49652487D01*
X83138686Y-49706189D01*
X83079408Y-49939804D01*
X82677000Y-49939804D01*
X82677000Y-46469617D01*
X82784203Y-46630058D01*
X82969943Y-46815798D01*
X83188351Y-46961733D01*
X83431032Y-47062255D01*
X83688662Y-47113501D01*
X83951338Y-47113501D01*
X84208968Y-47062255D01*
X84451649Y-46961733D01*
X84670057Y-46815798D01*
X84855797Y-46630058D01*
X85001732Y-46411650D01*
X85102254Y-46168969D01*
X85153500Y-45911339D01*
X85153500Y-45648663D01*
X85102254Y-45391033D01*
X85001732Y-45148352D01*
X84855797Y-44929944D01*
X84670057Y-44744204D01*
X84451649Y-44598269D01*
X84208968Y-44497747D01*
X83951338Y-44446501D01*
X83688662Y-44446501D01*
X83431032Y-44497747D01*
X83188351Y-44598269D01*
X82969943Y-44744204D01*
X82784203Y-44929944D01*
X82677000Y-45090385D01*
X82677000Y-39826000D01*
X85503947Y-39826000D01*
X85356123Y-39924773D01*
%TA.AperFunction,Conductor*%
D15*
G36*
X85356123Y-39924773D02*
G01*
X85136773Y-40144123D01*
X84964430Y-40402052D01*
X84845718Y-40688648D01*
X84785200Y-40992896D01*
X84785200Y-41303104D01*
X84845718Y-41607352D01*
X84964430Y-41893948D01*
X85136773Y-42151877D01*
X85356123Y-42371227D01*
X85600001Y-42534181D01*
X85600000Y-47206677D01*
X85596324Y-47244000D01*
X85600000Y-47281322D01*
X85600000Y-47281332D01*
X85610997Y-47392985D01*
X85631251Y-47459753D01*
X85654454Y-47536246D01*
X85725026Y-47668276D01*
X85764871Y-47716826D01*
X85819999Y-47784001D01*
X85849002Y-47807803D01*
X86304200Y-48263002D01*
X86327999Y-48292001D01*
X86443724Y-48386974D01*
X86575753Y-48457546D01*
X86719014Y-48501003D01*
X86830667Y-48512000D01*
X86830676Y-48512000D01*
X86867999Y-48515676D01*
X86905322Y-48512000D01*
X93022289Y-48512000D01*
X93066226Y-48555937D01*
X93235744Y-48669205D01*
X93424102Y-48747226D01*
X93624061Y-48787000D01*
X93827939Y-48787000D01*
X94027898Y-48747226D01*
X94216256Y-48669205D01*
X94385774Y-48555937D01*
X94529937Y-48411774D01*
X94643205Y-48242256D01*
X94721226Y-48053898D01*
X94761000Y-47853939D01*
X94761000Y-47650061D01*
X94721226Y-47450102D01*
X94643205Y-47261744D01*
X94529937Y-47092226D01*
X94419170Y-46981459D01*
X94611649Y-46901732D01*
X94830057Y-46755797D01*
X94998000Y-46587854D01*
X94998001Y-50084225D01*
X94900197Y-50059408D01*
X94159605Y-50800000D01*
X94900197Y-51540592D01*
X94998001Y-51515775D01*
X94998001Y-52771197D01*
X93469003Y-54300196D01*
X93439999Y-54323999D01*
X93399175Y-54373744D01*
X93345026Y-54439724D01*
X93279613Y-54562102D01*
X93274454Y-54571754D01*
X93230997Y-54715015D01*
X93220000Y-54826668D01*
X93220000Y-54826678D01*
X93216324Y-54864000D01*
X93220000Y-54901323D01*
X93220001Y-59240288D01*
X93176063Y-59284226D01*
X93062795Y-59453744D01*
X92984774Y-59642102D01*
X92945000Y-59842061D01*
X92945000Y-60045939D01*
X92984774Y-60245898D01*
X93062795Y-60434256D01*
X93176063Y-60603774D01*
X93320226Y-60747937D01*
X93489744Y-60861205D01*
X93678102Y-60939226D01*
X93878061Y-60979000D01*
X94081939Y-60979000D01*
X94281898Y-60939226D01*
X94470256Y-60861205D01*
X94639774Y-60747937D01*
X94783937Y-60603774D01*
X94897205Y-60434256D01*
X94975226Y-60245898D01*
X95015000Y-60045939D01*
X95015000Y-59842061D01*
X94975226Y-59642102D01*
X94897205Y-59453744D01*
X94783937Y-59284226D01*
X94740000Y-59240289D01*
X94740000Y-55178801D01*
X96269003Y-53649799D01*
X96298001Y-53626001D01*
X96392974Y-53510276D01*
X96463546Y-53378247D01*
X96507003Y-53234986D01*
X96518000Y-53123333D01*
X96518000Y-53123325D01*
X96521676Y-53086000D01*
X96518000Y-53048675D01*
X96518000Y-51720197D01*
X100859408Y-51720197D01*
X100918686Y-51953812D01*
X101156875Y-52064559D01*
X101412093Y-52126711D01*
X101674533Y-52137876D01*
X101934107Y-52097629D01*
X102180842Y-52007514D01*
X102281314Y-51953812D01*
X102340592Y-51720197D01*
X101600000Y-50979605D01*
X100859408Y-51720197D01*
X96518000Y-51720197D01*
X96518000Y-50874533D01*
X100262124Y-50874533D01*
X100302371Y-51134107D01*
X100392486Y-51380842D01*
X100446188Y-51481314D01*
X100679803Y-51540592D01*
X101420395Y-50800000D01*
X100679803Y-50059408D01*
X100446188Y-50118686D01*
X100335441Y-50356875D01*
X100273289Y-50612093D01*
X100262124Y-50874533D01*
X96518000Y-50874533D01*
X96518000Y-49879803D01*
X100859408Y-49879803D01*
X101600000Y-50620395D01*
X102340592Y-49879803D01*
X102281314Y-49646188D01*
X102043125Y-49535441D01*
X101787907Y-49473289D01*
X101525467Y-49462124D01*
X101265893Y-49502371D01*
X101019158Y-49592486D01*
X100918686Y-49646188D01*
X100859408Y-49879803D01*
X96518000Y-49879803D01*
X96518000Y-43748801D01*
X97031002Y-43235799D01*
X97060001Y-43212001D01*
X97154974Y-43096276D01*
X97225546Y-42964247D01*
X97269003Y-42820986D01*
X97280000Y-42709333D01*
X97280000Y-42709325D01*
X97283676Y-42672000D01*
X97280000Y-42634675D01*
X97280000Y-42534181D01*
X97523877Y-42371227D01*
X97654628Y-42240476D01*
X98147129Y-42240476D01*
X98235623Y-42498723D01*
X98514976Y-42633597D01*
X98815275Y-42711381D01*
X99124977Y-42729084D01*
X99432184Y-42686027D01*
X99725086Y-42583865D01*
X99884377Y-42498723D01*
X99972871Y-42240476D01*
X99060000Y-41327605D01*
X98147129Y-42240476D01*
X97654628Y-42240476D01*
X97743227Y-42151877D01*
X97834495Y-42015286D01*
X97967524Y-42060871D01*
X98880395Y-41148000D01*
X99239605Y-41148000D01*
X100152476Y-42060871D01*
X100410723Y-41972377D01*
X100545597Y-41693024D01*
X100623381Y-41392725D01*
X100641084Y-41083023D01*
X100598027Y-40775816D01*
X100495865Y-40482914D01*
X100410723Y-40323623D01*
X100152476Y-40235129D01*
X99239605Y-41148000D01*
X98880395Y-41148000D01*
X97967524Y-40235129D01*
X97834495Y-40280714D01*
X97743227Y-40144123D01*
X97523877Y-39924773D01*
X97376053Y-39826000D01*
X98225780Y-39826000D01*
X98147129Y-40055524D01*
X99060000Y-40968395D01*
X99972871Y-40055524D01*
X99894220Y-39826000D01*
X102743000Y-39826000D01*
X102743000Y-45030384D01*
X102635797Y-44869943D01*
X102450057Y-44684203D01*
X102231649Y-44538268D01*
X101988968Y-44437746D01*
X101731338Y-44386500D01*
X101468662Y-44386500D01*
X101211032Y-44437746D01*
X100968351Y-44538268D01*
X100749943Y-44684203D01*
X100564203Y-44869943D01*
X100418268Y-45088351D01*
X100317746Y-45331032D01*
X100266500Y-45588662D01*
X100266500Y-45851338D01*
X100317746Y-46108968D01*
X100418268Y-46351649D01*
X100564203Y-46570057D01*
X100749943Y-46755797D01*
X100968351Y-46901732D01*
X101211032Y-47002254D01*
X101468662Y-47053500D01*
X101731338Y-47053500D01*
X101988968Y-47002254D01*
X102231649Y-46901732D01*
X102450057Y-46755797D01*
X102635797Y-46570057D01*
X102743000Y-46409616D01*
X102743000Y-50115943D01*
X102520197Y-50059408D01*
X101779605Y-50800000D01*
X102520197Y-51540592D01*
X102743000Y-51484057D01*
X102743000Y-65151000D01*
X90878461Y-65151000D01*
X90911226Y-65071898D01*
X90951000Y-64871939D01*
X90951000Y-64668061D01*
X90911226Y-64468102D01*
X90909684Y-64464378D01*
X91037014Y-64503003D01*
X91148667Y-64514000D01*
X91148676Y-64514000D01*
X91185999Y-64517676D01*
X91223322Y-64514000D01*
X99979448Y-64514000D01*
X100023449Y-64532226D01*
X100223408Y-64572000D01*
X100427286Y-64572000D01*
X100627245Y-64532226D01*
X100815603Y-64454205D01*
X100985121Y-64340937D01*
X101129284Y-64196774D01*
X101242552Y-64027256D01*
X101320573Y-63838898D01*
X101360347Y-63638939D01*
X101360347Y-63435061D01*
X101320573Y-63235102D01*
X101242552Y-63046744D01*
X101129284Y-62877226D01*
X100988058Y-62736000D01*
X101054678Y-62736000D01*
X101092000Y-62739676D01*
X101129322Y-62736000D01*
X101129333Y-62736000D01*
X101240986Y-62725003D01*
X101384247Y-62681546D01*
X101516276Y-62610974D01*
X101632001Y-62516001D01*
X101655804Y-62486997D01*
X101856997Y-62285804D01*
X101886001Y-62262001D01*
X101980974Y-62146276D01*
X102051546Y-62014247D01*
X102095003Y-61870986D01*
X102106000Y-61759333D01*
X102106000Y-61759324D01*
X102109676Y-61722001D01*
X102106000Y-61684678D01*
X102106000Y-55821711D01*
X102149937Y-55777774D01*
X102263205Y-55608256D01*
X102341226Y-55419898D01*
X102381000Y-55219939D01*
X102381000Y-55016061D01*
X102341226Y-54816102D01*
X102263205Y-54627744D01*
X102149937Y-54458226D01*
X102005774Y-54314063D01*
X101836256Y-54200795D01*
X101647898Y-54122774D01*
X101447939Y-54083000D01*
X101244061Y-54083000D01*
X101044102Y-54122774D01*
X100855744Y-54200795D01*
X100686226Y-54314063D01*
X100542063Y-54458226D01*
X100428795Y-54627744D01*
X100350774Y-54816102D01*
X100311000Y-55016061D01*
X100311000Y-55219939D01*
X100350774Y-55419898D01*
X100428795Y-55608256D01*
X100542063Y-55777774D01*
X100586000Y-55821711D01*
X100586000Y-56050644D01*
X100431939Y-56020000D01*
X100228061Y-56020000D01*
X100028102Y-56059774D01*
X99839744Y-56137795D01*
X99670226Y-56251063D01*
X99531289Y-56390000D01*
X99247404Y-56390000D01*
X99361898Y-56367226D01*
X99550256Y-56289205D01*
X99719774Y-56175937D01*
X99863937Y-56031774D01*
X99977205Y-55862256D01*
X100055226Y-55673898D01*
X100095000Y-55473939D01*
X100095000Y-55270061D01*
X100055226Y-55070102D01*
X99977205Y-54881744D01*
X99863937Y-54712226D01*
X99719774Y-54568063D01*
X99550256Y-54454795D01*
X99361898Y-54376774D01*
X99161939Y-54337000D01*
X98958061Y-54337000D01*
X98758102Y-54376774D01*
X98569744Y-54454795D01*
X98400226Y-54568063D01*
X98356289Y-54612000D01*
X97573325Y-54612000D01*
X97536000Y-54608324D01*
X97498675Y-54612000D01*
X97498667Y-54612000D01*
X97387014Y-54622997D01*
X97243753Y-54666454D01*
X97111724Y-54737026D01*
X96995999Y-54831999D01*
X96972201Y-54860997D01*
X95923219Y-55909980D01*
X95861081Y-55909980D01*
X95661122Y-55949754D01*
X95472764Y-56027775D01*
X95303246Y-56141043D01*
X95159083Y-56285206D01*
X95045815Y-56454724D01*
X94967794Y-56643082D01*
X94928020Y-56843041D01*
X94928020Y-57046919D01*
X94967794Y-57246878D01*
X95045815Y-57435236D01*
X95159083Y-57604754D01*
X95303246Y-57748917D01*
X95472764Y-57862185D01*
X95661122Y-57940206D01*
X95861081Y-57979980D01*
X96064959Y-57979980D01*
X96264918Y-57940206D01*
X96453276Y-57862185D01*
X96622794Y-57748917D01*
X96766957Y-57604754D01*
X96880225Y-57435236D01*
X96958246Y-57246878D01*
X96998020Y-57046919D01*
X96998020Y-56984781D01*
X97850802Y-56132000D01*
X98356289Y-56132000D01*
X98400226Y-56175937D01*
X98569744Y-56289205D01*
X98758102Y-56367226D01*
X98872596Y-56390000D01*
X98843325Y-56390000D01*
X98806000Y-56386324D01*
X98768675Y-56390000D01*
X98768667Y-56390000D01*
X98657014Y-56400997D01*
X98513753Y-56444454D01*
X98381724Y-56515026D01*
X98265999Y-56609999D01*
X98242201Y-56638997D01*
X95500998Y-59380201D01*
X95472000Y-59403999D01*
X95448202Y-59432997D01*
X95448201Y-59432998D01*
X95377026Y-59519724D01*
X95306454Y-59651754D01*
X95262998Y-59795015D01*
X95248324Y-59944000D01*
X95252001Y-59981332D01*
X95252001Y-60256288D01*
X95208063Y-60300226D01*
X95094795Y-60469744D01*
X95016774Y-60658102D01*
X94977000Y-60858061D01*
X94977000Y-61061939D01*
X95016774Y-61261898D01*
X95094795Y-61450256D01*
X95208063Y-61619774D01*
X95352226Y-61763937D01*
X95521744Y-61877205D01*
X95710102Y-61955226D01*
X95910061Y-61995000D01*
X96113939Y-61995000D01*
X96313898Y-61955226D01*
X96502256Y-61877205D01*
X96671774Y-61763937D01*
X96815937Y-61619774D01*
X96851069Y-61567196D01*
X96794774Y-61703102D01*
X96755000Y-61903061D01*
X96755000Y-62106939D01*
X96794774Y-62306898D01*
X96872795Y-62495256D01*
X96986063Y-62664774D01*
X97130226Y-62808937D01*
X97299744Y-62922205D01*
X97473071Y-62994000D01*
X91500803Y-62994000D01*
X90422000Y-61915199D01*
X90422000Y-55567711D01*
X90465937Y-55523774D01*
X90579205Y-55354256D01*
X90657226Y-55165898D01*
X90697000Y-54965939D01*
X90697000Y-54762061D01*
X90657226Y-54562102D01*
X90579205Y-54373744D01*
X90465937Y-54204226D01*
X90321774Y-54060063D01*
X90152256Y-53946795D01*
X89963898Y-53868774D01*
X89763939Y-53829000D01*
X89560061Y-53829000D01*
X89360102Y-53868774D01*
X89171744Y-53946795D01*
X89002226Y-54060063D01*
X88858063Y-54204226D01*
X88744795Y-54373744D01*
X88666774Y-54562102D01*
X88627000Y-54762061D01*
X88627000Y-54965939D01*
X88666774Y-55165898D01*
X88744795Y-55354256D01*
X88858063Y-55523774D01*
X88902000Y-55567711D01*
X88902001Y-62192668D01*
X88898324Y-62230000D01*
X88912998Y-62378985D01*
X88956454Y-62522246D01*
X89027026Y-62654276D01*
X89085070Y-62725002D01*
X89122000Y-62770001D01*
X89150998Y-62793799D01*
X90110636Y-63753438D01*
X90017939Y-63735000D01*
X89814061Y-63735000D01*
X89614102Y-63774774D01*
X89425744Y-63852795D01*
X89256226Y-63966063D01*
X89212289Y-64010000D01*
X88079711Y-64010000D01*
X88035774Y-63966063D01*
X87866256Y-63852795D01*
X87677898Y-63774774D01*
X87477939Y-63735000D01*
X87274061Y-63735000D01*
X87074102Y-63774774D01*
X86885744Y-63852795D01*
X86716226Y-63966063D01*
X86572063Y-64110226D01*
X86458795Y-64279744D01*
X86380774Y-64468102D01*
X86341000Y-64668061D01*
X86341000Y-64871939D01*
X86380774Y-65071898D01*
X86413539Y-65151000D01*
X82677000Y-65151000D01*
X82677000Y-51780198D01*
X83079408Y-51780198D01*
X83138686Y-52013813D01*
X83376875Y-52124560D01*
X83632093Y-52186712D01*
X83894533Y-52197877D01*
X84154107Y-52157630D01*
X84400842Y-52067515D01*
X84501314Y-52013813D01*
X84560592Y-51780198D01*
X90699408Y-51780198D01*
X90758686Y-52013813D01*
X90996875Y-52124560D01*
X91252093Y-52186712D01*
X91514533Y-52197877D01*
X91774107Y-52157630D01*
X92020842Y-52067515D01*
X92121314Y-52013813D01*
X92180592Y-51780198D01*
X92120591Y-51720197D01*
X93239408Y-51720197D01*
X93298686Y-51953812D01*
X93536875Y-52064559D01*
X93792093Y-52126711D01*
X94054533Y-52137876D01*
X94314107Y-52097629D01*
X94560842Y-52007514D01*
X94661314Y-51953812D01*
X94720592Y-51720197D01*
X93980000Y-50979605D01*
X93239408Y-51720197D01*
X92120591Y-51720197D01*
X91440000Y-51039606D01*
X90699408Y-51780198D01*
X84560592Y-51780198D01*
X83820000Y-51039606D01*
X83079408Y-51780198D01*
X82677000Y-51780198D01*
X82677000Y-51544058D01*
X82899803Y-51600593D01*
X83640395Y-50860001D01*
X83999605Y-50860001D01*
X84740197Y-51600593D01*
X84973812Y-51541315D01*
X85084559Y-51303126D01*
X85146711Y-51047908D01*
X85151534Y-50934534D01*
X90102124Y-50934534D01*
X90142371Y-51194108D01*
X90232486Y-51440843D01*
X90286188Y-51541315D01*
X90519803Y-51600593D01*
X91260395Y-50860001D01*
X91619605Y-50860001D01*
X92360197Y-51600593D01*
X92593812Y-51541315D01*
X92704559Y-51303126D01*
X92720378Y-51238169D01*
X92772486Y-51380842D01*
X92826188Y-51481314D01*
X93059803Y-51540592D01*
X93800395Y-50800000D01*
X93059803Y-50059408D01*
X92826188Y-50118686D01*
X92715441Y-50356875D01*
X92699622Y-50421832D01*
X92647514Y-50279159D01*
X92593812Y-50178687D01*
X92360197Y-50119409D01*
X91619605Y-50860001D01*
X91260395Y-50860001D01*
X90519803Y-50119409D01*
X90286188Y-50178687D01*
X90175441Y-50416876D01*
X90113289Y-50672094D01*
X90102124Y-50934534D01*
X85151534Y-50934534D01*
X85157876Y-50785468D01*
X85117629Y-50525894D01*
X85027514Y-50279159D01*
X84973812Y-50178687D01*
X84740197Y-50119409D01*
X83999605Y-50860001D01*
X83640395Y-50860001D01*
X82899803Y-50119409D01*
X82677000Y-50175944D01*
X82677000Y-49939804D01*
X83079408Y-49939804D01*
X83820000Y-50680396D01*
X84560592Y-49939804D01*
X90699408Y-49939804D01*
X91440000Y-50680396D01*
X92180592Y-49939804D01*
X92165368Y-49879803D01*
X93239408Y-49879803D01*
X93980000Y-50620395D01*
X94720592Y-49879803D01*
X94661314Y-49646188D01*
X94423125Y-49535441D01*
X94167907Y-49473289D01*
X93905467Y-49462124D01*
X93645893Y-49502371D01*
X93399158Y-49592486D01*
X93298686Y-49646188D01*
X93239408Y-49879803D01*
X92165368Y-49879803D01*
X92121314Y-49706189D01*
X91883125Y-49595442D01*
X91627907Y-49533290D01*
X91365467Y-49522125D01*
X91105893Y-49562372D01*
X90859158Y-49652487D01*
X90758686Y-49706189D01*
X90699408Y-49939804D01*
X84560592Y-49939804D01*
X84501314Y-49706189D01*
X84263125Y-49595442D01*
X84007907Y-49533290D01*
X83745467Y-49522125D01*
X83485893Y-49562372D01*
X83239158Y-49652487D01*
X83138686Y-49706189D01*
X83079408Y-49939804D01*
X82677000Y-49939804D01*
X82677000Y-46469617D01*
X82784203Y-46630058D01*
X82969943Y-46815798D01*
X83188351Y-46961733D01*
X83431032Y-47062255D01*
X83688662Y-47113501D01*
X83951338Y-47113501D01*
X84208968Y-47062255D01*
X84451649Y-46961733D01*
X84670057Y-46815798D01*
X84855797Y-46630058D01*
X85001732Y-46411650D01*
X85102254Y-46168969D01*
X85153500Y-45911339D01*
X85153500Y-45648663D01*
X85102254Y-45391033D01*
X85001732Y-45148352D01*
X84855797Y-44929944D01*
X84670057Y-44744204D01*
X84451649Y-44598269D01*
X84208968Y-44497747D01*
X83951338Y-44446501D01*
X83688662Y-44446501D01*
X83431032Y-44497747D01*
X83188351Y-44598269D01*
X82969943Y-44744204D01*
X82784203Y-44929944D01*
X82677000Y-45090385D01*
X82677000Y-39826000D01*
X85503947Y-39826000D01*
X85356123Y-39924773D01*
G37*
%TD.AperFunction*%
D14*
X87676773Y-42151877D02*
X87896123Y-42371227D01*
X88140000Y-42534181D01*
X88140000Y-42888677D01*
X88136324Y-42926000D01*
X88140000Y-42963322D01*
X88140000Y-42963332D01*
X88150997Y-43074985D01*
X88188694Y-43199256D01*
X88194454Y-43218246D01*
X88265026Y-43350276D01*
X88303099Y-43396667D01*
X88359999Y-43466001D01*
X88389002Y-43489803D01*
X88844200Y-43945002D01*
X88867999Y-43974001D01*
X88983724Y-44068974D01*
X89115753Y-44139546D01*
X89259014Y-44183003D01*
X89370667Y-44194000D01*
X89370676Y-44194000D01*
X89407999Y-44197676D01*
X89445322Y-44194000D01*
X92903199Y-44194000D01*
X93220001Y-44510802D01*
X93220001Y-44624029D01*
X93129943Y-44684203D01*
X92944203Y-44869943D01*
X92798268Y-45088351D01*
X92697746Y-45331032D01*
X92697634Y-45331595D01*
X92621732Y-45148352D01*
X92475797Y-44929944D01*
X92290057Y-44744204D01*
X92071649Y-44598269D01*
X91828968Y-44497747D01*
X91571338Y-44446501D01*
X91308662Y-44446501D01*
X91051032Y-44497747D01*
X90808351Y-44598269D01*
X90589943Y-44744204D01*
X90404203Y-44929944D01*
X90258268Y-45148352D01*
X90157746Y-45391033D01*
X90106500Y-45648663D01*
X90106500Y-45911339D01*
X90157746Y-46168969D01*
X90258268Y-46411650D01*
X90404203Y-46630058D01*
X90589943Y-46815798D01*
X90808351Y-46961733D01*
X90881422Y-46992000D01*
X87182802Y-46992000D01*
X87120000Y-46929199D01*
X87120000Y-42534181D01*
X87363877Y-42371227D01*
X87583227Y-42151877D01*
X87630000Y-42081876D01*
X87676773Y-42151877D01*
%TA.AperFunction,Conductor*%
D15*
G36*
X87676773Y-42151877D02*
G01*
X87896123Y-42371227D01*
X88140000Y-42534181D01*
X88140000Y-42888677D01*
X88136324Y-42926000D01*
X88140000Y-42963322D01*
X88140000Y-42963332D01*
X88150997Y-43074985D01*
X88188694Y-43199256D01*
X88194454Y-43218246D01*
X88265026Y-43350276D01*
X88303099Y-43396667D01*
X88359999Y-43466001D01*
X88389002Y-43489803D01*
X88844200Y-43945002D01*
X88867999Y-43974001D01*
X88983724Y-44068974D01*
X89115753Y-44139546D01*
X89259014Y-44183003D01*
X89370667Y-44194000D01*
X89370676Y-44194000D01*
X89407999Y-44197676D01*
X89445322Y-44194000D01*
X92903199Y-44194000D01*
X93220001Y-44510802D01*
X93220001Y-44624029D01*
X93129943Y-44684203D01*
X92944203Y-44869943D01*
X92798268Y-45088351D01*
X92697746Y-45331032D01*
X92697634Y-45331595D01*
X92621732Y-45148352D01*
X92475797Y-44929944D01*
X92290057Y-44744204D01*
X92071649Y-44598269D01*
X91828968Y-44497747D01*
X91571338Y-44446501D01*
X91308662Y-44446501D01*
X91051032Y-44497747D01*
X90808351Y-44598269D01*
X90589943Y-44744204D01*
X90404203Y-44929944D01*
X90258268Y-45148352D01*
X90157746Y-45391033D01*
X90106500Y-45648663D01*
X90106500Y-45911339D01*
X90157746Y-46168969D01*
X90258268Y-46411650D01*
X90404203Y-46630058D01*
X90589943Y-46815798D01*
X90808351Y-46961733D01*
X90881422Y-46992000D01*
X87182802Y-46992000D01*
X87120000Y-46929199D01*
X87120000Y-42534181D01*
X87363877Y-42371227D01*
X87583227Y-42151877D01*
X87630000Y-42081876D01*
X87676773Y-42151877D01*
G37*
%TD.AperFunction*%
%TD*%
M02*
